<?xml version="1.0" encoding="utf-8"?>
<!-- Generator: Adobe Illustrator 16.0.0, SVG Export Plug-In . SVG Version: 6.00 Build 0)  -->
<!DOCTYPE svg PUBLIC "-//W3C//DTD SVG 1.1//EN" "http://www.w3.org/Graphics/SVG/1.1/DTD/svg11.dtd">
<svg version="1.1" id="Layer_1" xmlns="http://www.w3.org/2000/svg" xmlns:xlink="http://www.w3.org/1999/xlink" x="0px" y="0px"
	 width="600px" height="600px" viewBox="0 0 600 600" enable-background="new 0 0 600 600" xml:space="preserve">
<rect y="0.038" width="600" height="599.924"/>
<path stroke="#FFFFFF" stroke-width="0.9911" stroke-miterlimit="10" d="M560,540c0,11.046-8.954,20-20,20H60
	c-11.046,0-20-8.954-20-20V60c0-11.046,8.954-20,20-20h480c11.046,0,20,8.954,20,20V540z"/>
<g>
	<path fill="#FFFFFF" d="M212.305,231.5c0,1.008-0.36,1.992-1.08,2.952c-0.769,1.008-1.753,1.512-2.952,1.512
		c-0.816,0-1.632-0.216-2.448-0.648c-2.353-1.104-4.896-1.656-7.632-1.656c-3.36,0-6.289,0.709-8.784,2.124
		c-2.497,1.417-4.417,3.409-5.76,5.976c-1.344,2.568-2.016,5.508-2.016,8.82c0,5.665,1.523,9.961,4.572,12.888
		c3.048,2.928,7.043,4.392,11.988,4.392c2.927,0,5.472-0.551,7.632-1.656c0.864-0.383,1.631-0.576,2.304-0.576
		c1.248,0,2.304,0.529,3.168,1.584c0.72,0.912,1.08,1.896,1.08,2.952c0,0.769-0.192,1.465-0.576,2.088
		c-0.385,0.624-0.936,1.104-1.656,1.44c-3.744,1.872-7.729,2.808-11.952,2.808c-4.705,0-9.024-0.996-12.96-2.988
		c-3.936-1.991-7.081-4.932-9.432-8.82c-2.353-3.888-3.528-8.592-3.528-14.112c0-4.896,1.116-9.288,3.348-13.176
		s5.315-6.923,9.252-9.108c3.935-2.184,8.375-3.276,13.32-3.276c4.272,0,8.232,0.936,11.88,2.808
		C211.561,228.596,212.305,229.82,212.305,231.5z"/>
	<path fill="#FFFFFF" d="M253.633,266.887c-1.728,3.049-4.093,5.413-7.092,7.092c-3,1.681-6.3,2.52-9.9,2.52
		c-3.648,0-6.96-0.839-9.936-2.52c-2.977-1.68-5.328-4.043-7.056-7.092c-1.728-3.047-2.592-6.491-2.592-10.332
		c0-3.839,0.864-7.283,2.592-10.332c1.728-3.047,4.08-5.423,7.056-7.128c2.976-1.703,6.288-2.556,9.936-2.556
		c3.6,0,6.899,0.853,9.9,2.556c3,1.705,5.364,4.081,7.092,7.128c1.728,3.049,2.592,6.493,2.592,10.332
		C256.225,260.396,255.361,263.84,253.633,266.887z M246.109,250.255c-0.984-1.847-2.304-3.276-3.96-4.284
		c-1.656-1.008-3.492-1.512-5.508-1.512s-3.852,0.504-5.508,1.512c-1.656,1.008-2.977,2.437-3.96,4.284
		c-0.984,1.848-1.476,3.949-1.476,6.3c0,2.353,0.492,4.44,1.476,6.264c0.983,1.825,2.304,3.24,3.96,4.248
		c1.656,1.008,3.492,1.512,5.508,1.512s3.852-0.504,5.508-1.512c1.656-1.008,2.976-2.423,3.96-4.248
		c0.983-1.824,1.476-3.912,1.476-6.264C247.585,254.204,247.092,252.104,246.109,250.255z"/>
	<path fill="#FFFFFF" d="M317.713,240.896c1.824,2.904,2.736,6.924,2.736,12.06v18.432c0,1.249-0.408,2.293-1.224,3.132
		c-0.817,0.84-1.849,1.26-3.097,1.26s-2.28-0.419-3.096-1.26c-0.816-0.839-1.225-1.883-1.225-3.132v-18.432
		c0-2.639-0.516-4.716-1.547-6.228c-1.033-1.512-2.845-2.268-5.437-2.268c-2.688,0-4.788,0.804-6.3,2.412
		c-1.512,1.609-2.268,3.636-2.268,6.084v18.432c0,1.249-0.409,2.293-1.224,3.132c-0.817,0.84-1.849,1.26-3.096,1.26
		c-1.249,0-2.28-0.419-3.096-1.26c-0.817-0.839-1.224-1.883-1.224-3.132v-18.432c0-2.639-0.517-4.716-1.548-6.228
		c-1.033-1.512-2.844-2.268-5.436-2.268c-2.689,0-4.788,0.804-6.3,2.412c-1.512,1.609-2.268,3.636-2.268,6.084v18.432
		c0,1.249-0.408,2.293-1.224,3.132c-0.817,0.84-1.849,1.26-3.096,1.26c-1.249,0-2.28-0.419-3.096-1.26
		c-0.816-0.839-1.224-1.883-1.224-3.132v-29.736c0-1.248,0.407-2.292,1.224-3.132c0.816-0.839,1.848-1.26,3.096-1.26
		c1.248,0,2.279,0.421,3.096,1.26c0.815,0.84,1.224,1.884,1.224,3.132v1.152c1.296-1.728,2.94-3.204,4.932-4.428
		c1.991-1.224,4.212-1.836,6.66-1.836c6.048,0,9.911,2.641,11.592,7.92c1.104-2.016,2.772-3.84,5.004-5.472
		c2.232-1.631,4.764-2.448,7.597-2.448C312.602,236.539,315.889,237.992,317.713,240.896z"/>
	<path fill="#FFFFFF" d="M330.097,231.787c-0.673-0.527-1.008-1.463-1.008-2.808v-1.368c0-1.343,0.36-2.279,1.08-2.808
		c0.72-0.527,1.872-0.792,3.456-0.792c1.68,0,2.855,0.265,3.528,0.792c0.671,0.529,1.008,1.465,1.008,2.808v1.368
		c0,1.393-0.349,2.34-1.044,2.844c-0.696,0.504-1.885,0.756-3.564,0.756C331.921,232.579,330.769,232.316,330.097,231.787z
		 M336.721,274.52c-0.816,0.84-1.849,1.26-3.096,1.26c-1.249,0-2.28-0.419-3.096-1.26c-0.817-0.839-1.225-1.883-1.225-3.132v-29.736
		c0-1.248,0.407-2.292,1.225-3.132c0.815-0.839,1.847-1.26,3.096-1.26c1.247,0,2.279,0.421,3.096,1.26
		c0.815,0.84,1.225,1.884,1.225,3.132v29.736C337.945,272.636,337.536,273.68,336.721,274.52z"/>
	<path fill="#FFFFFF" d="M377.544,240.896c1.872,2.904,2.809,6.924,2.809,12.06v18.432c0,1.249-0.409,2.293-1.225,3.132
		c-0.816,0.84-1.849,1.26-3.096,1.26c-1.249,0-2.28-0.419-3.096-1.26c-0.817-0.839-1.225-1.883-1.225-3.132v-18.432
		c0-2.639-0.552-4.716-1.656-6.228c-1.104-1.512-3-2.268-5.688-2.268c-2.784,0-4.968,0.804-6.552,2.412
		c-1.584,1.609-2.376,3.636-2.376,6.084v18.432c0,1.249-0.408,2.293-1.225,3.132c-0.816,0.84-1.848,1.26-3.096,1.26
		c-1.249,0-2.28-0.419-3.096-1.26c-0.817-0.839-1.225-1.883-1.225-3.132v-29.736c0-1.248,0.407-2.292,1.225-3.132
		c0.815-0.839,1.847-1.26,3.096-1.26c1.248,0,2.279,0.421,3.096,1.26c0.816,0.84,1.225,1.884,1.225,3.132v1.224
		c1.296-1.728,2.987-3.215,5.076-4.464c2.088-1.248,4.379-1.872,6.876-1.872C372.288,236.539,375.672,237.992,377.544,240.896z"/>
	<path fill="#FFFFFF" d="M424.703,237.763c0.815,0.817,1.225,1.872,1.225,3.168v32.04c0,5.856-1.813,10.188-5.437,12.996
		c-3.625,2.808-8.221,4.212-13.788,4.212c-1.439,0-3.42-0.241-5.939-0.72c-2.521-0.48-4.31-0.961-5.364-1.44
		c-2.353-1.008-3.528-2.401-3.528-4.176c0-0.336,0.072-0.72,0.216-1.152c0.288-1.057,0.78-1.861,1.477-2.412
		c0.695-0.552,1.451-0.828,2.268-0.828c0.479,0,0.937,0.072,1.368,0.216c0.191,0.047,1.379,0.491,3.564,1.332
		c2.184,0.839,4.163,1.26,5.939,1.26c3.552,0,6.203-0.708,7.956-2.124c1.752-1.417,2.628-3.42,2.628-6.012v-3.456
		c-1.057,1.488-2.652,2.833-4.788,4.032s-4.428,1.8-6.876,1.8c-3.36,0-6.42-0.852-9.18-2.556c-2.761-1.703-4.932-4.068-6.516-7.092
		c-1.585-3.024-2.377-6.455-2.377-10.296c0-3.839,0.78-7.283,2.341-10.332c1.559-3.047,3.695-5.423,6.407-7.128
		c2.712-1.703,5.725-2.556,9.036-2.556c2.448,0,4.728,0.504,6.84,1.512s3.816,2.232,5.112,3.672v-0.792
		c0-1.248,0.407-2.292,1.225-3.132c0.815-0.839,1.847-1.26,3.096-1.26C422.854,236.539,423.887,236.948,424.703,237.763z
		 M414.587,265.159c2.04-2.279,3.061-5.148,3.061-8.604s-1.021-6.336-3.061-8.64c-2.04-2.304-4.668-3.456-7.884-3.456
		s-5.832,1.152-7.848,3.456c-2.017,2.304-3.024,5.184-3.024,8.64s1.008,6.325,3.024,8.604c2.016,2.28,4.632,3.42,7.848,3.42
		S412.547,267.439,414.587,265.159z"/>
	<path fill="#FFFFFF" d="M205.537,361.604c-2.688-0.864-5.208-2.328-7.56-4.393c-1.296-1.152-1.944-2.423-1.944-3.816
		c0-1.104,0.407-2.075,1.224-2.916c0.815-0.838,1.8-1.26,2.952-1.26c0.911,0,1.728,0.289,2.448,0.864
		c1.919,1.584,3.792,2.736,5.616,3.456c1.824,0.721,3.983,1.08,6.48,1.08c2.688,0,5.004-0.6,6.948-1.8
		c1.944-1.199,2.916-2.688,2.916-4.464c0-2.16-0.96-3.852-2.88-5.076c-1.92-1.225-4.968-2.148-9.144-2.771
		c-10.512-1.536-15.768-6.432-15.768-14.688c0-3.024,0.792-5.652,2.376-7.884c1.584-2.232,3.744-3.936,6.48-5.112
		c2.736-1.176,5.784-1.765,9.144-1.765c3.024,0,5.868,0.457,8.532,1.369s4.883,2.112,6.66,3.6c1.392,1.104,2.088,2.376,2.088,3.816
		c0,1.104-0.409,2.076-1.224,2.916c-0.817,0.84-1.776,1.26-2.88,1.26c-0.72,0-1.368-0.217-1.944-0.648
		c-1.249-1.008-2.988-1.932-5.22-2.771s-4.237-1.26-6.012-1.26c-3.024,0-5.364,0.564-7.02,1.691
		c-1.656,1.129-2.484,2.604-2.484,4.428c0,2.064,0.852,3.625,2.556,4.68c1.703,1.057,4.379,1.921,8.028,2.592
		c4.127,0.721,7.427,1.646,9.9,2.773c2.472,1.127,4.332,2.663,5.58,4.607c1.248,1.943,1.872,4.524,1.872,7.74
		c0,3.023-0.853,5.676-2.556,7.955c-1.704,2.281-3.972,4.033-6.804,5.256c-2.833,1.225-5.88,1.837-9.144,1.837
		C211.297,362.899,208.225,362.467,205.537,361.604z"/>
	<path fill="#FFFFFF" d="M275.232,353.287c-1.728,3.049-4.093,5.412-7.092,7.092c-3,1.682-6.3,2.521-9.9,2.521
		c-3.648,0-6.96-0.839-9.936-2.521c-2.977-1.68-5.328-4.043-7.056-7.092c-1.728-3.047-2.592-6.491-2.592-10.332
		c0-3.84,0.864-7.283,2.592-10.332c1.728-3.047,4.08-5.424,7.056-7.128c2.976-1.703,6.288-2.556,9.936-2.556
		c3.6,0,6.899,0.853,9.9,2.556c3,1.704,5.364,4.081,7.092,7.128c1.728,3.049,2.592,6.492,2.592,10.332
		C277.824,346.796,276.96,350.24,275.232,353.287z M267.708,336.655c-0.984-1.847-2.304-3.276-3.96-4.284
		c-1.656-1.008-3.492-1.512-5.508-1.512s-3.852,0.504-5.508,1.512c-1.656,1.008-2.977,2.438-3.96,4.284
		c-0.984,1.849-1.476,3.948-1.476,6.3c0,2.353,0.492,4.44,1.476,6.264c0.983,1.825,2.304,3.24,3.96,4.248
		c1.656,1.008,3.492,1.512,5.508,1.512s3.852-0.504,5.508-1.512c1.656-1.008,2.976-2.423,3.96-4.248
		c0.983-1.823,1.476-3.911,1.476-6.264C269.184,340.604,268.691,338.504,267.708,336.655z"/>
	<path fill="#FFFFFF" d="M319.439,353.287c-1.728,3.049-4.092,5.412-7.092,7.092c-3,1.682-6.3,2.521-9.9,2.521
		c-3.648,0-6.96-0.839-9.936-2.521c-2.977-1.68-5.328-4.043-7.056-7.092c-1.728-3.047-2.592-6.491-2.592-10.332
		c0-3.84,0.864-7.283,2.592-10.332c1.728-3.047,4.08-5.424,7.056-7.128c2.976-1.703,6.288-2.556,9.936-2.556
		c3.601,0,6.9,0.853,9.9,2.556c3,1.704,5.364,4.081,7.092,7.128c1.729,3.049,2.593,6.492,2.593,10.332
		C322.032,346.796,321.168,350.24,319.439,353.287z M311.916,336.655c-0.984-1.847-2.305-3.276-3.961-4.284
		c-1.655-1.008-3.491-1.512-5.508-1.512c-2.016,0-3.852,0.504-5.507,1.512c-1.656,1.008-2.977,2.438-3.96,4.284
		c-0.984,1.849-1.476,3.948-1.476,6.3c0,2.353,0.492,4.44,1.476,6.264c0.983,1.825,2.304,3.24,3.96,4.248
		c1.656,1.008,3.492,1.512,5.507,1.512c2.017,0,3.853-0.504,5.508-1.512c1.656-1.008,2.977-2.423,3.961-4.248
		c0.982-1.823,1.476-3.911,1.476-6.264C313.392,340.604,312.898,338.504,311.916,336.655z"/>
	<path fill="#FFFFFF" d="M359.976,327.295c1.872,2.904,2.809,6.925,2.809,12.061v18.432c0,1.249-0.409,2.293-1.225,3.133
		c-0.816,0.84-1.849,1.26-3.096,1.26c-1.249,0-2.28-0.42-3.096-1.26c-0.817-0.84-1.225-1.884-1.225-3.133v-18.432
		c0-2.64-0.552-4.717-1.656-6.229s-3-2.268-5.688-2.268c-2.784,0-4.968,0.805-6.552,2.412c-1.584,1.608-2.376,3.636-2.376,6.084
		v18.432c0,1.249-0.408,2.293-1.225,3.133s-1.848,1.26-3.096,1.26c-1.249,0-2.28-0.42-3.096-1.26
		c-0.817-0.84-1.225-1.884-1.225-3.133v-29.736c0-1.247,0.407-2.291,1.225-3.131c0.815-0.84,1.847-1.261,3.096-1.261
		c1.248,0,2.279,0.421,3.096,1.261s1.225,1.884,1.225,3.131v1.225c1.296-1.729,2.987-3.215,5.076-4.465
		c2.088-1.247,4.379-1.871,6.876-1.871C354.72,322.939,358.104,324.392,359.976,327.295z"/>
	<path fill="#FFFFFF" d="M393.563,361.063c-0.745-0.743-1.116-1.811-1.116-3.203v-1.225c0-1.391,0.371-2.459,1.116-3.203
		c0.743-0.744,1.811-1.116,3.203-1.116h0.937c1.392,0,2.459,0.372,3.204,1.116c0.743,0.744,1.116,1.813,1.116,3.203v1.225
		c0,1.393-0.373,2.46-1.116,3.203c-0.745,0.746-1.813,1.117-3.204,1.117h-0.937C395.374,362.18,394.307,361.809,393.563,361.063z
		 M394.607,343.531l-2.088-26.496c-0.098-1.487,0.299-2.736,1.188-3.744c0.888-1.008,2.052-1.512,3.492-1.512
		c1.439,0,2.615,0.504,3.527,1.512s1.297,2.257,1.152,3.744l-2.016,26.496c-0.145,1.824-1.008,2.736-2.592,2.736
		C395.639,346.268,394.751,345.355,394.607,343.531z"/>
</g>
</svg>
