<?xml version="1.0" encoding="utf-8"?>
<!-- Generator: Adobe Illustrator 16.0.0, SVG Export Plug-In . SVG Version: 6.00 Build 0)  -->
<!DOCTYPE svg PUBLIC "-//W3C//DTD SVG 1.1//EN" "http://www.w3.org/Graphics/SVG/1.1/DTD/svg11.dtd">
<svg version="1.1" id="Layer_1" xmlns="http://www.w3.org/2000/svg" xmlns:xlink="http://www.w3.org/1999/xlink" x="0px" y="0px"
	 width="75px" height="75px" viewBox="0 0 75 75" enable-background="new 0 0 75 75" xml:space="preserve">
<g>
	<path fill="#FFFFFF" d="M55.686,3.534c0,3.66,0,7.32,0,10.98c-2.361,0.009-4.725-0.007-7.086,0.036
		c-3.422,0.062-5.305,1.404-5.554,4.481c-0.257,3.165-0.058,6.367-0.058,9.682c4.095,0,8.146,0,12.248,0
		c-0.545,4.195-1.071,8.254-1.615,12.443c-3.629,0-7.148,0-10.775,0c0,10.72,0,21.291,0,31.843c-4.32,0-8.525,0-12.828,0
		c0-10.663,0-21.237,0-31.949c-3.634,0-7.168,0-10.704,0c0-4.118,0-8.235,0-12.353c3.563,0,7.126,0,10.75,0
		c0-3.422-0.068-6.659,0.016-9.892c0.124-4.778,1.474-9.08,5.282-12.286c2.803-2.358,6.145-3.373,9.717-3.403
		C48.615,3.086,52.15,3.382,55.686,3.534z"/>
</g>
</svg>
