<?xml version="1.0" encoding="utf-8"?>
<!-- Generator: Adobe Illustrator 16.0.0, SVG Export Plug-In . SVG Version: 6.00 Build 0)  -->
<!DOCTYPE svg PUBLIC "-//W3C//DTD SVG 1.1//EN" "http://www.w3.org/Graphics/SVG/1.1/DTD/svg11.dtd">
<svg version="1.1" id="Layer_1" xmlns="http://www.w3.org/2000/svg" xmlns:xlink="http://www.w3.org/1999/xlink" x="0px" y="0px"
	 width="30px" height="26px" viewBox="0 0 30 26" enable-background="new 0 0 30 26" xml:space="preserve">
<g>
	<path d="M7.159,8.997c0.085,0.197,0.21,0.371,0.323,0.552c0.54,0.894,1.085,1.79,1.629,2.682c0.456,0.747,0.911,1.493,1.366,2.239
		c0.068,0.114,0.071,0.114-0.045,0.177c-0.923,0.505-1.843,1.006-2.764,1.506c-0.827,0.452-1.655,0.903-2.48,1.353
		c-0.074,0.042-0.108,0.049-0.161-0.036c-0.581-0.968-1.168-1.931-1.754-2.896c-0.321-0.53-0.65-1.053-0.958-1.589
		c-0.162-0.281-0.235-0.597-0.267-0.918c-0.004-0.036,0.009-0.074-0.021-0.107v-0.369c0.021-0.11,0.037-0.219,0.061-0.327
		c0.062-0.304,0.188-0.585,0.356-0.847c0.142-0.217,0.295-0.425,0.462-0.621C2.919,9.79,2.938,9.79,2.935,9.768L2.933,9.77
		c0.019,0.002,0.03-0.002,0.023-0.022H2.954C3.059,9.711,3.127,9.625,3.212,9.56C3.705,9.182,4.26,8.972,4.901,8.977
		C5.379,8.981,5.86,8.983,6.338,8.985C6.613,8.988,6.885,8.992,7.159,8.997"/>
	<path fill="#FCFCFC" d="M5.108,17.648c-0.104,0-0.158-0.087-0.179-0.12c-0.436-0.726-0.874-1.446-1.312-2.168l-0.442-0.729
		c-0.095-0.157-0.191-0.313-0.287-0.469c-0.224-0.366-0.456-0.744-0.672-1.123c-0.151-0.261-0.243-0.577-0.282-0.964
		c-0.001-0.013-0.002-0.029-0.001-0.044l-0.03-0.033l0.009-0.041v-0.369c0.011-0.067,0.019-0.111,0.026-0.156
		c0.011-0.065,0.022-0.131,0.037-0.195c0.061-0.298,0.186-0.596,0.372-0.884C2.46,10.18,2.58,10.015,2.702,9.862h-0.43l0.542-0.187
		L2.812,9.643L2.886,9.65l0.022-0.007l0.111-0.09l0.003,0.02C3.035,9.562,3.047,9.55,3.061,9.539
		c0.026-0.024,0.053-0.048,0.082-0.07c0.533-0.408,1.102-0.606,1.739-0.606c0.416,0.003,0.813,0.005,1.21,0.007l0.247,0.001
		c0.271,0.002,0.538,0.006,0.807,0.011L7.22,8.883l0.044,0.068C7.326,9.093,7.409,9.223,7.498,9.36L7.58,9.488
		c0.54,0.896,1.085,1.791,1.629,2.683l1.366,2.239c0.045,0.075,0.078,0.13,0.059,0.198c-0.019,0.069-0.076,0.101-0.148,0.139
		c-0.922,0.505-1.842,1.006-2.764,1.506c-0.827,0.452-1.655,0.903-2.48,1.353C5.206,17.625,5.16,17.648,5.108,17.648z M2.141,11.923
		c0.022,0.044,0.021,0.086,0.021,0.112c0.037,0.377,0.117,0.654,0.253,0.891c0.215,0.376,0.446,0.753,0.669,1.117
		c0.096,0.157,0.192,0.313,0.287,0.47l0.443,0.729c0.438,0.722,0.876,1.443,1.311,2.167c0.002-0.001,0.004-0.002,0.007-0.004
		c0.828-0.45,1.655-0.901,2.482-1.354c0.921-0.5,1.841-1.001,2.764-1.506c0.003-0.002,0.006-0.003,0.009-0.005
		c-0.001-0.002-0.003-0.005-0.004-0.007L9.014,12.29c-0.544-0.892-1.089-1.788-1.629-2.682L7.306,9.484
		C7.229,9.365,7.15,9.243,7.085,9.11C6.828,9.105,6.584,9.102,6.337,9.1L6.091,9.099C5.694,9.097,5.296,9.095,4.9,9.091h0
		c-0.604,0-1.127,0.183-1.619,0.56C3.258,9.668,3.235,9.688,3.213,9.708C3.169,9.749,3.12,9.793,3.058,9.826l0.009,0.069
		L2.981,9.888C2.978,9.89,2.976,9.891,2.973,9.892c-0.15,0.179-0.296,0.375-0.434,0.586c-0.17,0.264-0.285,0.536-0.34,0.807
		c-0.014,0.063-0.024,0.125-0.036,0.187c-0.008,0.046-0.016,0.092-0.025,0.139L2.141,11.923z"/>
</g>
<g>
	<path d="M24.33,5.379c0.047,0.004,0.052,0.044,0.064,0.071c1.055,1.871,2.114,3.738,3.155,5.611c0.34,0.61,0.326,1.233-0.054,1.836
		c-0.514,0.818-1.023,1.638-1.539,2.454c-0.047,0.076-0.033,0.101,0.042,0.144c0.635,0.353,1.265,0.71,1.899,1.067
		c0.027,0.014,0.05,0.027,0.074,0.041c-0.021,0.038-0.056,0.024-0.078,0.024c-2.002,0-4.005,0-6.007,0.002
		c-0.063,0-0.099-0.022-0.13-0.069c-1.112-1.7-2.226-3.401-3.336-5.102c-0.009-0.013-0.029-0.027-0.018-0.06
		c0.026,0.013,0.051,0.027,0.078,0.042c0.732,0.42,1.466,0.838,2.194,1.258c0.063,0.036,0.089,0.045,0.132-0.024
		C21.503,11.537,22.2,10.4,22.9,9.263c0.013-0.021,0.021-0.042,0.033-0.063c0.014-0.018,0.026-0.033,0.036-0.051
		c0.375-0.608,0.75-1.22,1.126-1.83c0.257-0.425,0.366-0.878,0.328-1.368C24.408,5.756,24.353,5.571,24.33,5.379"/>
	<path fill="#FCFCFC" d="M27.928,16.745l-0.031-0.002c-2.002-0.004-4.007-0.001-6.009,0.001c-0.098,0-0.171-0.039-0.225-0.12
		l-0.603-0.92c-0.912-1.395-1.824-2.789-2.734-4.183c-0.04-0.047-0.051-0.102-0.029-0.161l0.043-0.122l0.115,0.058
		c0.028,0.014,0.055,0.029,0.084,0.046l0.759,0.435c0.477,0.272,0.952,0.544,1.425,0.817c0.696-1.139,1.387-2.265,2.08-3.391
		l0.031-0.06c0.021-0.029,0.029-0.038,0.035-0.049l1.129-1.836c0.246-0.407,0.348-0.832,0.312-1.299
		c-0.008-0.102-0.028-0.201-0.048-0.301c-0.018-0.088-0.035-0.177-0.045-0.267L24.2,5.252l0.141,0.013
		c0.108,0.01,0.143,0.099,0.154,0.128l0.735,1.305c0.811,1.436,1.62,2.87,2.419,4.308c0.36,0.646,0.341,1.322-0.057,1.953
		l-0.583,0.93c-0.314,0.504-0.63,1.008-0.947,1.51c0.463,0.258,0.926,0.519,1.389,0.779l0.503,0.284
		c0.018,0.008,0.036,0.019,0.055,0.029l0.097,0.056l-0.032,0.11C28.044,16.713,27.99,16.745,27.928,16.745z M18.721,11.709
		c0.851,1.3,1.691,2.584,2.531,3.869l0.602,0.92c0.011,0.017,0.013,0.018,0.034,0.018c1.896-0.002,3.794-0.002,5.691-0.002
		l-0.24-0.136c-0.465-0.262-0.929-0.523-1.396-0.783c-0.037-0.021-0.104-0.059-0.123-0.134c-0.017-0.066,0.012-0.125,0.039-0.169
		c0.321-0.508,0.639-1.016,0.957-1.524l0.583-0.931c0.355-0.564,0.372-1.143,0.051-1.72c-0.799-1.438-1.609-2.872-2.419-4.306
		l-0.494-0.875c0,0.002,0.001,0.004,0.001,0.005c0.039,0.51-0.076,0.993-0.345,1.436l-1.126,1.831
		c-0.009,0.016-0.023,0.036-0.04,0.057c-0.013,0.028-0.021,0.043-0.029,0.058c-0.7,1.137-1.397,2.274-2.092,3.412
		c-0.017,0.027-0.066,0.106-0.161,0.106l0,0c-0.047,0-0.086-0.02-0.125-0.042c-0.478-0.275-0.956-0.549-1.436-0.824L18.721,11.709z"
		/>
</g>
<g>
	<path d="M7.159,8.997C6.885,8.992,6.613,8.988,6.338,8.985C5.86,8.983,5.379,8.981,4.901,8.977C4.26,8.972,3.705,9.182,3.212,9.56
		C3.127,9.625,3.059,9.711,2.954,9.748C2.928,9.714,2.965,9.696,2.98,9.671C4.185,7.87,5.382,6.063,6.599,4.272
		c0.366-0.539,0.927-0.827,1.611-0.831c0.899-0.009,1.797,0.011,2.696,0.02c0.14,0,0.282,0.002,0.42,0.007
		c0.058,0.002,0.081-0.011,0.083-0.072c0.002-0.353,0.017-0.708,0.019-1.062c0.004-0.377,0-0.753,0-1.13
		c0.013-0.002,0.024-0.004,0.036-0.007c0.019,0.027,0.039,0.051,0.056,0.078c0.992,1.631,1.985,3.26,2.983,4.894
		c0.032,0.054,0.028,0.094-0.002,0.145c-0.998,1.743-1.996,3.488-2.993,5.233c-0.016,0.027-0.034,0.056-0.057,0.094
		c0-0.25-0.004-0.48,0-0.715c0.011-0.559,0.03-1.12,0.042-1.681c0-0.074,0.048-0.172-0.011-0.214
		c-0.05-0.038-0.151-0.013-0.229-0.013C10.622,9.015,9.995,9.017,9.367,9.01C8.631,9.001,7.897,8.992,7.159,8.997"/>
	<path fill="#FCFCFC" d="M11.335,12.042l-0.001-0.647c-0.001-0.159-0.002-0.313,0.001-0.469c0.005-0.279,0.013-0.558,0.021-0.837
		c0.008-0.281,0.015-0.563,0.021-0.844c0-0.027,0.005-0.059,0.011-0.091c0.001-0.008,0.003-0.018,0.005-0.027
		c-0.028,0-0.045,0.002-0.063,0.003c-0.027,0.002-0.054,0.004-0.079,0.004c-0.63-0.003-1.257-0.002-1.885-0.009
		C8.763,9.117,8.165,9.11,7.565,9.11L7.16,9.111C6.868,9.106,6.604,9.102,6.337,9.1L6.096,9.099C5.697,9.097,5.298,9.095,4.9,9.091
		h0c-0.604,0-1.127,0.183-1.618,0.56C3.258,9.668,3.235,9.688,3.213,9.708c-0.06,0.054-0.127,0.115-0.222,0.147L2.914,9.882
		l-0.05-0.065C2.84,9.787,2.795,9.706,2.881,9.612L3.878,8.12c0.857-1.285,1.743-2.614,2.625-3.912
		c0.389-0.572,0.979-0.876,1.705-0.881C8.854,3.319,9.5,3.329,10.145,3.338l0.762,0.009c0.128,0,0.259,0.002,0.387,0.006
		c0.002-0.168,0.006-0.334,0.01-0.5c0.004-0.173,0.008-0.346,0.01-0.519c0.003-0.251,0.002-0.501,0.001-0.752l-0.001-0.473
		l0.166-0.031l0.096,0.078c0.015,0.02,0.029,0.039,0.041,0.059c0.993,1.632,1.986,3.261,2.984,4.895
		c0.052,0.087,0.052,0.173-0.001,0.263c-0.997,1.742-1.995,3.487-2.993,5.232c-0.016,0.029-0.035,0.059-0.059,0.098L11.335,12.042z
		 M11.392,8.896c0.042,0,0.104,0.005,0.157,0.044c0.098,0.07,0.076,0.189,0.064,0.253c-0.003,0.018-0.007,0.036-0.007,0.053
		c-0.005,0.284-0.013,0.566-0.021,0.848c-0.008,0.278-0.015,0.557-0.021,0.835c-0.001,0.097-0.002,0.194-0.002,0.291
		c0.946-1.654,1.893-3.309,2.839-4.962l0.102-0.088l-0.098,0.06c-0.957-1.567-1.91-3.129-2.862-4.694v0.046
		c0.001,0.251,0.002,0.502-0.001,0.755c-0.001,0.173-0.005,0.348-0.009,0.522c-0.004,0.18-0.009,0.359-0.01,0.539
		c-0.004,0.12-0.073,0.186-0.187,0.186c-0.151-0.005-0.292-0.007-0.43-0.007l-0.764-0.009C9.498,3.558,8.854,3.55,8.21,3.556
		C7.563,3.56,7.038,3.83,6.693,4.337c-0.882,1.297-1.768,2.625-2.625,3.91L3.353,9.32c0.472-0.308,0.974-0.458,1.529-0.458
		C5.3,8.866,5.699,8.868,6.097,8.87l0.242,0.001c0.268,0.002,0.533,0.006,0.799,0.011l0.427-0.001c0.601,0,1.2,0.007,1.8,0.015
		c0.633,0.007,1.258,0.005,1.887,0.009c0.018,0,0.039-0.002,0.059-0.004C11.339,8.899,11.366,8.896,11.392,8.896z"/>
</g>
<g>
	<path d="M17.718,24.802c-0.503-0.004-1.003-0.011-1.506-0.016c-0.776-0.007-1.557-0.014-2.335-0.02
		c-0.661-0.007-1.32-0.014-1.979-0.021c-0.355-0.005-0.709,0.014-1.061-0.018c-0.702-0.065-1.292-0.317-1.663-0.93
		c-0.504-0.834-1.028-1.651-1.541-2.479c-0.039-0.064-0.066-0.058-0.121-0.024c-0.627,0.344-1.257,0.688-1.886,1.032
		c-0.037,0.021-0.066,0.049-0.114,0.052c-0.002-0.003-0.004-0.005-0.007-0.007c0.185-0.322,0.368-0.646,0.555-0.966
		c0.79-1.347,1.579-2.697,2.369-4.047c0.028-0.047,0.055-0.071,0.121-0.073c0.861-0.038,1.719-0.078,2.58-0.121
		c0.998-0.045,1.992-0.094,2.99-0.139c0.284-0.013,0.568-0.024,0.854-0.038c-0.022,0.045-0.073,0.057-0.112,0.076
		c-0.737,0.4-1.474,0.796-2.213,1.191c-0.062,0.031-0.073,0.054-0.034,0.118c0.712,1.138,1.421,2.275,2.132,3.412
		c0.01,0.016,0.021,0.027,0.033,0.041c0.299,0.451,0.597,0.902,0.904,1.35c0.198,0.29,0.364,0.605,0.616,0.86
		c0.371,0.377,0.807,0.649,1.359,0.732C17.683,24.772,17.709,24.772,17.718,24.802"/>
	<path fill="#FCFCFC" d="M17.872,24.917l-0.155-0.001c-0.301-0.002-0.601-0.006-0.901-0.009L16.211,24.9
		c-0.776-0.007-1.557-0.014-2.335-0.02l-2.117-0.021l-0.402,0.002c-0.155,0-0.34-0.002-0.529-0.019
		c-0.824-0.077-1.396-0.399-1.75-0.984c-0.32-0.531-0.649-1.055-0.978-1.579c-0.184-0.293-0.367-0.585-0.55-0.879
		c-0.624,0.349-1.246,0.689-1.867,1.028c-0.05,0.031-0.096,0.062-0.162,0.065l-0.058,0.004l-0.037-0.045l-0.077-0.062l0.059-0.075
		l0.138-0.241c0.139-0.242,0.277-0.485,0.418-0.726c0.596-1.017,1.191-2.034,1.787-3.053l0.582-0.994
		c0.038-0.063,0.092-0.126,0.216-0.13c0.859-0.038,1.717-0.078,2.577-0.121c0.501-0.022,1-0.046,1.5-0.069
		c0.497-0.023,0.993-0.047,1.49-0.069l1.049-0.048l-0.087,0.175c-0.037,0.073-0.103,0.102-0.143,0.118
		c-0.745,0.403-1.473,0.794-2.203,1.185l2.245,3.575c0.265,0.399,0.53,0.799,0.802,1.195c0.056,0.082,0.109,0.166,0.163,0.251
		c0.138,0.215,0.267,0.419,0.439,0.594c0.394,0.398,0.816,0.628,1.295,0.699c0.099,0.008,0.137,0.065,0.15,0.111L17.872,24.917z
		 M11.758,24.631l2.119,0.021c0.779,0.006,1.559,0.013,2.335,0.02l0.605,0.007c0.056,0,0.111,0.001,0.167,0.001
		c-0.272-0.13-0.525-0.316-0.766-0.562c-0.19-0.191-0.333-0.415-0.47-0.631c-0.053-0.083-0.105-0.165-0.16-0.245
		c-0.272-0.396-0.537-0.797-0.803-1.197l-0.102-0.153c-0.012-0.014-0.023-0.026-0.033-0.042l-2.133-3.414
		c-0.026-0.043-0.052-0.099-0.034-0.162c0.021-0.071,0.085-0.104,0.113-0.118c0.639-0.342,1.277-0.685,1.916-1.031l-0.388,0.018
		c-0.497,0.022-0.994,0.046-1.49,0.069c-0.5,0.023-0.999,0.047-1.5,0.069c-0.86,0.043-1.718,0.083-2.58,0.121L8.431,17.36
		l0.099,0.058l-0.582,0.994c-0.595,1.019-1.191,2.037-1.787,3.053c-0.125,0.214-0.248,0.429-0.371,0.645
		c0.558-0.305,1.114-0.609,1.669-0.914c0.029-0.018,0.068-0.038,0.116-0.038c0.094,0,0.142,0.078,0.157,0.104
		c0.186,0.3,0.373,0.599,0.561,0.897c0.33,0.524,0.659,1.05,0.98,1.581c0.318,0.526,0.818,0.805,1.575,0.875
		c0.18,0.017,0.358,0.019,0.508,0.019L11.758,24.631z"/>
</g>
<g>
	<path d="M17.718,24.802c-0.009-0.029-0.035-0.029-0.058-0.031c-0.553-0.083-0.988-0.355-1.359-0.732
		c-0.252-0.255-0.418-0.57-0.616-0.86c-0.307-0.447-0.604-0.898-0.904-1.35c0.153-0.255,0.309-0.513,0.462-0.771
		c0.598-1.021,1.201-2.038,1.8-3.06c0.342-0.576,0.68-1.152,1.017-1.729c0.038-0.066,0.061-0.08,0.137-0.04
		c0.742,0.392,1.488,0.777,2.232,1.164c1.025,0.532,2.054,1.064,3.079,1.598c0.132,0.067,0.132,0.067,0.061,0.188
		c-0.505,0.855-1.011,1.711-1.513,2.569c-0.376,0.637-0.735,1.28-1.127,1.906c-0.234,0.373-0.578,0.657-0.974,0.885
		c-0.508,0.288-1.062,0.373-1.643,0.333C18.115,24.857,17.919,24.807,17.718,24.802"/>
	<path fill="#FCFCFC" d="M18.577,24.995c-0.09,0-0.181-0.004-0.272-0.01c-0.091-0.007-0.182-0.021-0.272-0.034
		c-0.109-0.017-0.213-0.032-0.317-0.035l-0.083-0.002l-0.011-0.035c-0.531-0.088-0.984-0.336-1.401-0.761
		c-0.19-0.191-0.333-0.415-0.47-0.631c-0.053-0.083-0.105-0.165-0.16-0.245c-0.271-0.396-0.537-0.796-0.802-1.196l-0.143-0.215
		l0.185-0.308c0.104-0.174,0.21-0.35,0.314-0.525c0.316-0.54,0.635-1.08,0.953-1.62c0.282-0.479,0.565-0.958,0.847-1.438
		c0.342-0.577,0.68-1.152,1.017-1.729c0.02-0.035,0.068-0.119,0.169-0.119c0.046,0,0.088,0.019,0.12,0.035
		c0.592,0.313,1.187,0.622,1.781,0.931l3.529,1.831c0.086,0.044,0.143,0.073,0.164,0.145c0.021,0.071-0.013,0.127-0.058,0.203
		l-0.225,0.381c-0.431,0.729-0.86,1.458-1.288,2.188c-0.123,0.208-0.243,0.417-0.364,0.625c-0.246,0.423-0.5,0.861-0.765,1.284
		c-0.225,0.358-0.557,0.66-1.014,0.924C19.588,24.878,19.118,24.995,18.577,24.995z M17.772,24.689
		c0.102,0.006,0.199,0.021,0.295,0.036c0.084,0.013,0.169,0.025,0.253,0.031c0.592,0.04,1.123-0.06,1.578-0.318
		c0.423-0.243,0.729-0.521,0.934-0.846c0.263-0.42,0.516-0.856,0.76-1.278c0.121-0.209,0.242-0.417,0.365-0.626
		c0.428-0.73,0.858-1.46,1.288-2.188l0.225-0.381c0.004-0.006,0.007-0.011,0.01-0.016c-0.007-0.004-0.015-0.008-0.023-0.013
		l-3.53-1.831c-0.591-0.308-1.183-0.614-1.771-0.925c-0.345,0.588-0.677,1.154-1.013,1.721c-0.281,0.479-0.564,0.959-0.847,1.438
		c-0.318,0.54-0.637,1.079-0.953,1.62c-0.104,0.177-0.21,0.353-0.315,0.527l-0.11,0.184l0.063,0.095
		c0.264,0.398,0.529,0.798,0.8,1.193c0.056,0.082,0.109,0.166,0.163,0.251c0.138,0.215,0.267,0.419,0.439,0.594
		c0.394,0.398,0.816,0.628,1.295,0.699C17.719,24.66,17.75,24.673,17.772,24.689z"/>
</g>
<g>
	<path d="M24.33,5.379c0.022,0.192,0.078,0.377,0.094,0.572c0.038,0.489-0.071,0.943-0.328,1.368
		c-0.376,0.61-0.751,1.222-1.126,1.83c-0.01,0.018-0.022,0.034-0.036,0.051c-1.66,0-3.32,0.002-4.979,0.002
		c-0.574,0-1.148-0.002-1.721,0.002c-0.092,0-0.114-0.026-0.114-0.109c0.002-1.908,0-3.821-0.002-5.731
		c-0.003-0.096,0.029-0.116,0.125-0.116c1.683,0.002,3.365,0.016,5.043-0.007c0.687-0.009,1.294,0.161,1.857,0.505
		c0.402,0.246,0.68,0.599,0.902,0.997c0.105,0.186,0.173,0.389,0.282,0.57C24.341,5.334,24.346,5.354,24.33,5.379"/>
	<path fill="#FCFCFC" d="M16.235,9.318L16.235,9.318c-0.152,0-0.229-0.075-0.229-0.224c0.002-1.905,0-3.814-0.002-5.721
		c-0.002-0.056,0.002-0.127,0.054-0.181s0.123-0.06,0.186-0.06l1.237,0.003c1.269,0.004,2.539,0.007,3.804-0.01l0.053,0
		c0.681,0,1.291,0.171,1.866,0.522c0.375,0.229,0.674,0.559,0.942,1.038c0.051,0.09,0.094,0.184,0.136,0.278
		c0.047,0.102,0.09,0.199,0.145,0.289c0.032,0.057,0.032,0.105,0.021,0.143c0.01,0.074,0.024,0.146,0.039,0.219
		c0.021,0.105,0.042,0.214,0.052,0.327c0.039,0.51-0.076,0.993-0.345,1.436l-1.126,1.831c-0.009,0.016-0.023,0.036-0.039,0.056
		l-0.035,0.044l-0.06,0.005l-5.433,0.002l-0.453,0C16.776,9.316,16.506,9.316,16.235,9.318z M16.232,3.362v0.001
		c0.002,1.915,0.004,3.823,0.002,5.727c0.271-0.002,0.542-0.003,0.813-0.003l0.907,0.001l4.919-0.002l1.124-1.827
		c0.246-0.406,0.348-0.832,0.312-1.299c-0.008-0.102-0.028-0.201-0.048-0.301c-0.018-0.088-0.035-0.177-0.045-0.267l-0.005-0.04
		l0.004-0.006c-0.055-0.094-0.1-0.193-0.143-0.289c-0.04-0.087-0.079-0.175-0.127-0.259c-0.249-0.444-0.522-0.748-0.862-0.956
		c-0.538-0.329-1.109-0.488-1.747-0.488h-0.05c-1.268,0.016-2.537,0.013-3.808,0.01l-1.236-0.003
		C16.239,3.361,16.235,3.361,16.232,3.362z"/>
</g>
</svg>
