<?xml version="1.0" encoding="utf-8"?>
<!-- Generator: Adobe Illustrator 16.0.0, SVG Export Plug-In . SVG Version: 6.00 Build 0)  -->
<!DOCTYPE svg PUBLIC "-//W3C//DTD SVG 1.1//EN" "http://www.w3.org/Graphics/SVG/1.1/DTD/svg11.dtd">
<svg version="1.1" id="Layer_1" xmlns="http://www.w3.org/2000/svg" xmlns:xlink="http://www.w3.org/1999/xlink" x="0px" y="0px"
	 width="48.833px" height="47px" viewBox="0 0 48.833 47" enable-background="new 0 0 48.833 47" xml:space="preserve">
<path fill="none" stroke="#000000" stroke-width="0.8225" stroke-linecap="round" stroke-linejoin="round" stroke-miterlimit="10" d="
	M27.153,17.36c0.24-1.223,0.317-2.569-0.023-3.753c-0.007-0.008-0.007-0.008,0-0.008c-0.031-0.14-0.076-0.263-0.131-0.402
	c-0.363-0.968-0.774-2.438-1.177-4.032c-0.937-3.73-1.804-8.111-1.804-8.111c-1.347,2.129-2.415,4.048-3.258,5.766
	c0,0.008,0,0.008,0,0.016 M17.998,15.619c-0.102,1.138-0.023,2.074,0.131,2.817c0.116,0.558,0.279,1.006,0.449,1.362 M16.977,23.072
	c-1.734-0.107-4.722-0.928-8.096-4.559c-0.729,0.117-3.267,0.627-6.362,2.709c0,0,0.65,2.043,2.849,4.048h0.008 M18.129,18.437
	c-0.154-0.743-0.232-1.68-0.131-2.817c-1.13-1.842-2.569-3.792-3.893-4.527c-0.063-0.039-0.117-0.062-0.18-0.093
	c-2.816-1.347-10.208-0.085-10.208-0.085c1.749,3.367,3.507,5.82,5.163,7.6c3.374,3.631,6.361,4.451,8.096,4.559 M20.807,31.672
	c-1.215,1.539-3.382,2.561-5.704,3.219c-2.012,0.572-4.163,0.891-5.958,1.053H9.137c-2.415,0.232-4.211,0.193-4.211,0.193
	c3.104-2.36,3.629-1.95,4.961-6.811 M10.436,28.142c1.309-1.95,4.188-2.662,6.354-3.042 M31.519,28.537
	c0.813,0.758,2.059,1.617,3.67,2.353h0.006c1.449,0.673,3.189,1.23,5.164,1.54c6.359,1.006,7.809-8.506,7.809-8.506
	c-1.215,0.371-3.824,0.317-8.143-0.735c-0.232-0.062-0.473-0.124-0.721-0.187c-1.238-0.316-2.43-0.455-3.514-0.479
	c-1.137,0.596-2.367,0.789-3.428,1.121 M34.026,6.386c3.188-2.028,6.385-3.166,7.43-3.096c-0.719,1.71-1.061,8.281-2.129,13.312
	c-0.076,0.402-0.168,0.805-0.262,1.184c-0.682,2.748-1.904,4.024-3.275,4.737c-1.137,0.596-2.367,0.789-3.428,1.121 M15.103,34.891
	c-0.735,1.037-1.347,2.368-1.687,4.087c-0.355,1.741-0.418,3.886-0.023,6.517c0,0,4.287-1.727,7.36-5.178 M15.103,34.891
	c-2.012,0.572-4.163,0.891-5.958,1.053H9.137c-0.566,1.138-1.084,2.469-1.494,4.009c0,0,2.646-0.03,5.773-0.975 M10.166,28.057
	c-2.09-0.728-3.653-1.741-4.791-2.786H5.367c-0.774,0.325-2.701,1.37-3.832,4.063c0,0,4.342-0.891,7.57-0.124
	c0.186,0.046,0.448,0.085,0.781,0.116c0.115-0.441,0.302-0.836,0.549-1.185C10.344,28.111,10.258,28.08,10.166,28.057z
	 M35.188,30.89h0.006c2.416,2.569,4.93,6.021,5.658,9.813c0,0-6.408,2.415-12.313-4.527 M30.056,24.219h-0.008 M30.001,24.21v-0.007
	 M39.327,16.602c3.646-1.246,7.307-1.718,7.307-1.718c-2.725,2.855-3.203,5.982-6.492,8.227c-0.039,0.023-0.07,0.046-0.117,0.077
	 M30.056,24.219h-0.008 M33.392,3.677c-0.039-0.294-0.047-0.457-0.047-0.457c-2.523,0.805-5.426,3.219-7.522,5.944
	c0.402,1.594,0.813,3.064,1.177,4.032c0.055,0.14,0.1,0.263,0.131,0.402c1.293-2.949,4.086-5.425,6.896-7.213
	C33.624,5.31,33.462,4.258,33.392,3.677z M16.164,3.391c-0.016,1.981-0.689,3.459-1.656,6.099c-0.201,0.565-0.334,1.091-0.402,1.603
	c1.323,0.735,2.763,2.685,3.893,4.527c0.162-2.121,0.905-4.984,2.763-8.784c0-0.008,0-0.008,0-0.016
	C18.121,6.541,16.164,3.391,16.164,3.391z M28.315,31.74c0.216,1.672,0.277,3.135,0.224,4.436c-0.333,8.181-5.278,9.403-5.278,9.403
	c-1.331-1.718-2.09-3.537-2.508-5.263c-0.503-2.074-0.495-4.025-0.333-5.519C20.605,33.01,21,31.856,21,31.856
	s0.008-0.022,0.016-0.069"/>
<path fill="none" stroke="#000000" stroke-width="0.774" stroke-miterlimit="10" d="M21.016,31.787
	c1.061,0.55,2.261,0.867,3.538,0.875c1.361,0.016,2.639-0.325,3.762-0.922"/>
<path fill="none" stroke="#000000" stroke-width="0.774" stroke-miterlimit="10" d="M30.001,24.21c0,0,0.016-0.007,0.047,0.009"/>
<path fill="none" stroke="#000000" stroke-width="0.774" stroke-miterlimit="10" d="M32.362,23.645
	c0.07,0.403,0.093,0.813,0.093,1.23c-0.016,1.324-0.349,2.57-0.937,3.662"/>
<path fill="none" stroke="#000000" stroke-width="0.8225" stroke-linecap="round" stroke-linejoin="round" stroke-miterlimit="10" d="
	M9.438,13.282c2.33,0.441,6.602,4.234,9.07,6.602 M18.299,29.45c-1.3,0.758-3.142,1.393-5.719,1.517 M23.655,39.109
	c-0.286-2.014,0.093-4.76,0.402-6.471 M32.37,25.951c1.709,0.674,4.063,1.447,6.184,1.564c3.902,0.208,5.697-0.729,5.697-0.729
	 M28.927,18.235c1.299-2.802,4.572-9.048,8.504-10.905 M23.833,16.981c-0.696-2.624-1.207-5.34-0.836-6.788"/>
<g>
	<path d="M24.618,18.564c-3.446,0-6.24,2.795-6.24,6.241s2.794,6.239,6.24,6.239s6.24-2.794,6.24-6.239S28.064,18.564,24.618,18.564
		z M22.811,20.246c0-0.487,0.396-0.883,0.882-0.883c0.487,0,0.883,0.396,0.883,0.883s-0.396,0.882-0.883,0.882
		C23.206,21.128,22.811,20.733,22.811,20.246z M24.618,25.686c-0.488,0-0.883-0.395-0.883-0.881c0-0.488,0.395-0.885,0.883-0.885
		c0.486,0,0.883,0.396,0.883,0.885C25.501,25.291,25.104,25.686,24.618,25.686z M26.179,26.609c-0.487,0-0.883-0.393-0.883-0.881
		c0-0.486,0.396-0.883,0.883-0.883c0.488,0,0.883,0.396,0.883,0.883C27.062,26.217,26.667,26.609,26.179,26.609z M26.938,28.781
		c-0.486,0-0.881-0.396-0.881-0.881c0-0.488,0.395-0.885,0.881-0.885c0.487,0,0.883,0.396,0.883,0.885
		C27.821,28.385,27.426,28.781,26.938,28.781z M27.821,23.879c-0.488,0-0.883-0.395-0.883-0.883c0-0.486,0.395-0.883,0.883-0.883
		s0.883,0.396,0.883,0.883C28.704,23.484,28.31,23.879,27.821,23.879z M22.297,27.453c-0.486,0-0.883-0.396-0.883-0.883
		c0-0.488,0.396-0.882,0.883-0.882s0.882,0.394,0.882,0.882C23.179,27.057,22.783,27.453,22.297,27.453z M23.056,23.242
		c-0.486,0-0.882-0.396-0.882-0.883s0.396-0.881,0.882-0.881s0.882,0.394,0.882,0.881S23.542,23.242,23.056,23.242z M28.595,26.57
		c-0.487,0-0.882-0.396-0.882-0.882c0-0.487,0.395-0.883,0.882-0.883c0.488,0,0.884,0.396,0.884,0.883
		C29.479,26.175,29.083,26.57,28.595,26.57z M20.941,24.742c-0.486,0-0.882-0.395-0.882-0.883c0-0.486,0.396-0.883,0.882-0.883
		c0.489,0,0.884,0.396,0.884,0.883C21.825,24.348,21.431,24.742,20.941,24.742z M25.479,22.914c-0.486,0-0.882-0.395-0.882-0.882
		s0.396-0.884,0.882-0.884c0.487,0,0.882,0.397,0.882,0.884S25.966,22.914,25.479,22.914z M24.229,29.5
		c-0.486,0-0.881-0.396-0.881-0.883c0-0.487,0.395-0.883,0.881-0.883c0.49,0,0.885,0.396,0.885,0.883
		C25.114,29.104,24.72,29.5,24.229,29.5z"/>
	<g>
		<path d="M24.62,18.594c0,0-0.151,0.016-0.437,0.044c-0.278,0.055-0.719,0.006-1.216,0.207c-0.252,0.085-0.541,0.152-0.835,0.275
			c-0.279,0.157-0.582,0.327-0.905,0.508c-0.3,0.214-0.587,0.488-0.906,0.75c-0.281,0.301-0.539,0.656-0.818,1.009
			c-0.438,0.786-0.864,1.694-0.915,2.73c-0.014,0.25-0.06,0.528-0.049,0.764c0.03,0.268,0.06,0.54,0.09,0.814
			c0.01,0.283,0.093,0.539,0.184,0.792c0.093,0.254,0.146,0.523,0.27,0.771c0.473,1.016,1.251,1.898,2.203,2.568
			c0.982,0.623,2.18,0.936,3.309,0.977c1.262-0.073,2.331-0.405,3.314-1.041c0.921-0.687,1.678-1.555,2.131-2.555
			c0.388-1.012,0.604-2.072,0.46-3.076c-0.055-1.058-0.457-1.866-0.868-2.675c-0.267-0.351-0.513-0.705-0.783-1.007
			c-0.309-0.264-0.586-0.542-0.878-0.76c-0.316-0.187-0.612-0.361-0.886-0.523c-0.29-0.127-0.576-0.199-0.825-0.289
			c-0.495-0.209-0.928-0.168-1.206-0.228C24.77,18.613,24.62,18.594,24.62,18.594z M24.616,18.534c0,0,0.155,0.012,0.442,0.036
			c0.282,0.05,0.723-0.007,1.233,0.186c0.257,0.082,0.553,0.145,0.855,0.265c0.293,0.146,0.61,0.305,0.95,0.474
			c0.318,0.203,0.627,0.468,0.972,0.725c0.309,0.295,0.597,0.647,0.909,1.004c0.22,0.418,0.543,0.808,0.706,1.308
			c0.162,0.497,0.372,1.025,0.391,1.541c0.023,0.277,0.083,0.49,0.078,0.829c-0.028,0.281-0.057,0.566-0.085,0.854
			c-0.009,0.292-0.093,0.572-0.188,0.853c-0.096,0.279-0.157,0.575-0.287,0.845c-0.5,1.1-1.328,2.07-2.367,2.786
			c-1.057,0.675-2.395,1.021-3.583,1.048c-1.321-0.059-2.531-0.426-3.59-1.111c-1.007-0.733-1.813-1.69-2.294-2.774
			c-0.125-0.267-0.184-0.564-0.275-0.841c-0.092-0.281-0.17-0.559-0.174-0.833c-0.025-0.275-0.051-0.546-0.075-0.815
			c-0.008-0.301,0.053-0.553,0.076-0.826c0.095-1.079,0.571-2.006,1.05-2.794c0.3-0.354,0.576-0.706,0.874-1.003
			c0.334-0.258,0.633-0.528,0.943-0.735c0.332-0.174,0.644-0.337,0.931-0.488c0.298-0.125,0.592-0.193,0.847-0.279
			c0.508-0.202,0.941-0.151,1.223-0.207C24.463,18.549,24.616,18.534,24.616,18.534z"/>
		<path d="M22.78,20.24c0,0,0.018-0.084,0.047-0.232c0.006-0.077,0.044-0.158,0.101-0.257c0.047-0.107,0.117-0.215,0.234-0.299
			c0.099-0.117,0.247-0.166,0.417-0.209c0.055-0.008,0.057-0.033,0.156-0.027l0.115,0.015c0.078,0.014,0.153,0.015,0.238,0.039
			c0.181,0.092,0.4,0.199,0.5,0.381c0.154,0.156,0.176,0.382,0.229,0.595c-0.045,0.277,0.007,0.342-0.149,0.612
			c-0.111,0.254-0.311,0.354-0.491,0.482c-0.102,0.037-0.211,0.049-0.314,0.069L23.71,21.43c-0.033-0.002,0.048,0.008-0.079-0.004
			l-0.014-0.004l-0.026-0.009l-0.054-0.018c-0.135-0.038-0.275-0.093-0.423-0.245c-0.148-0.118-0.206-0.248-0.243-0.367
			c-0.049-0.112-0.074-0.205-0.068-0.291c-0.012-0.162-0.022-0.247-0.022-0.247V20.24z M22.841,20.246c0,0,0.023,0.083,0.071,0.217
			c0.013,0.071,0.069,0.139,0.153,0.194c0.066,0.07,0.154,0.122,0.244,0.125c0.049,0.006,0.056,0.027,0.126,0.031
			c0.071,0,0.145,0.001,0.218,0.009c0.047,0.011,0.18-0.049,0.268-0.062c0.08-0.06,0.2-0.103,0.239-0.168
			c0.089,0.012,0.131-0.293,0.171-0.346c-0.031-0.117,0-0.262-0.092-0.363c-0.05-0.138-0.15-0.173-0.229-0.27
			c-0.123-0.035-0.349-0.123-0.398-0.09c-0.126,0.004-0.251,0.01-0.35,0.077c-0.121,0.037-0.197,0.11-0.253,0.192
			c-0.076,0.069-0.12,0.148-0.121,0.228c-0.03,0.148-0.047,0.232-0.047,0.232V20.246z"/>
		<path d="M24.612,25.715c0,0-0.085-0.017-0.232-0.046c-0.077-0.006-0.158-0.043-0.257-0.101c-0.107-0.047-0.216-0.117-0.3-0.234
			c-0.117-0.099-0.166-0.248-0.209-0.418c-0.008-0.054-0.033-0.057-0.026-0.156l0.016-0.114c0.013-0.078,0.014-0.154,0.038-0.238
			c0.092-0.182,0.199-0.401,0.381-0.501c0.156-0.155,0.382-0.176,0.595-0.23c0.278,0.045,0.343-0.006,0.612,0.151
			c0.255,0.111,0.354,0.311,0.482,0.491c0.037,0.101,0.05,0.211,0.069,0.314l0.021,0.153l0.003,0.019l-0.007,0.063l-0.001,0.002
			l-0.001,0.003l-0.002,0.007l-0.009,0.027l-0.018,0.053c-0.038,0.136-0.093,0.276-0.245,0.423
			c-0.118,0.148-0.248,0.206-0.367,0.243c-0.111,0.048-0.204,0.074-0.291,0.068c-0.162,0.011-0.247,0.022-0.247,0.022L24.612,25.715
			z M24.618,25.655c0,0,0.084-0.023,0.217-0.071c0.071-0.013,0.139-0.069,0.194-0.153c0.069-0.066,0.121-0.155,0.125-0.244
			c0.006-0.049,0.027-0.055,0.031-0.126c0-0.071,0.001-0.145,0.009-0.218c0.011-0.045-0.049-0.179-0.062-0.267
			c-0.061-0.081-0.104-0.201-0.169-0.241c0.012-0.089-0.294-0.131-0.346-0.171c-0.117,0.032-0.262,0.001-0.363,0.092
			c-0.138,0.051-0.174,0.151-0.27,0.231c-0.035,0.122-0.122,0.348-0.09,0.398c0.004,0.125,0.01,0.25,0.076,0.35
			c0.037,0.121,0.11,0.197,0.192,0.252c0.068,0.076,0.147,0.12,0.228,0.121c0.148,0.03,0.232,0.047,0.232,0.047L24.618,25.655z"/>
		<path d="M26.173,26.639c0,0-0.085-0.017-0.232-0.046c-0.077-0.006-0.158-0.043-0.257-0.1c-0.107-0.047-0.216-0.117-0.3-0.234
			c-0.117-0.098-0.166-0.248-0.209-0.417c-0.008-0.054-0.032-0.057-0.026-0.156l0.016-0.115c0.014-0.078,0.014-0.154,0.038-0.238
			c0.092-0.181,0.2-0.4,0.382-0.5c0.178-0.152,0.334-0.18,0.644-0.225c0.181,0.036,0.315-0.009,0.563,0.146
			c0.254,0.111,0.354,0.311,0.482,0.491c0.036,0.102,0.049,0.211,0.068,0.314l0.022,0.153c-0.003,0.033,0.008-0.047-0.005,0.079
			l-0.004,0.014l-0.009,0.027l-0.018,0.053c-0.037,0.136-0.093,0.276-0.245,0.423c-0.118,0.148-0.248,0.206-0.367,0.243
			c-0.111,0.049-0.204,0.074-0.291,0.067c-0.162,0.012-0.247,0.022-0.247,0.022L26.173,26.639z M26.179,26.579
			c0,0,0.084-0.023,0.217-0.071c0.071-0.013,0.139-0.069,0.194-0.153c0.069-0.066,0.122-0.155,0.125-0.244
			c0.007-0.049,0.027-0.055,0.031-0.125c0-0.071,0.001-0.145,0.009-0.218c0.011-0.046-0.049-0.179-0.062-0.267
			c-0.06-0.08-0.103-0.201-0.169-0.24c-0.009-0.091-0.244-0.126-0.394-0.176c-0.021,0.042-0.235,0.003-0.314,0.097
			c-0.139,0.051-0.175,0.151-0.27,0.23c-0.036,0.122-0.123,0.348-0.091,0.398c0.004,0.125,0.01,0.251,0.076,0.35
			c0.037,0.121,0.11,0.197,0.192,0.252c0.069,0.076,0.147,0.12,0.229,0.121c0.147,0.03,0.231,0.047,0.231,0.047L26.179,26.579z"/>
		<path d="M26.933,28.811c0,0-0.085-0.017-0.232-0.047c-0.077-0.006-0.158-0.044-0.257-0.101c-0.106-0.047-0.215-0.118-0.299-0.234
			c-0.116-0.099-0.165-0.248-0.208-0.417c-0.008-0.054-0.033-0.057-0.026-0.156l0.016-0.114c0.014-0.078,0.014-0.154,0.039-0.239
			c0.091-0.181,0.198-0.4,0.38-0.5c0.178-0.153,0.335-0.181,0.644-0.225c0.181,0.035,0.316-0.009,0.563,0.146
			c0.255,0.111,0.354,0.311,0.481,0.491c0.036,0.101,0.049,0.211,0.068,0.314l0.022,0.153l0.001,0.009v0.004l0.001,0.002
			l-0.007,0.063l-0.004,0.014l-0.009,0.027l-0.018,0.053c-0.037,0.135-0.094,0.276-0.246,0.423
			c-0.117,0.148-0.247,0.206-0.366,0.242c-0.111,0.049-0.204,0.074-0.291,0.068c-0.162,0.011-0.247,0.022-0.247,0.022L26.933,28.811
			z M26.938,28.751c0,0,0.084-0.023,0.217-0.071c0.07-0.013,0.139-0.069,0.194-0.153c0.069-0.066,0.121-0.155,0.125-0.244
			c0.006-0.049,0.027-0.056,0.03-0.125c0-0.071,0.002-0.145,0.01-0.218c0.011-0.045-0.049-0.179-0.062-0.267
			c-0.06-0.081-0.103-0.202-0.169-0.241c-0.009-0.091-0.242-0.126-0.393-0.176c-0.021,0.041-0.234,0.002-0.314,0.096
			c-0.138,0.051-0.174,0.151-0.269,0.231c-0.037,0.122-0.122,0.348-0.092,0.398c0.005,0.125,0.01,0.25,0.076,0.35
			c0.037,0.121,0.11,0.198,0.192,0.253c0.068,0.076,0.147,0.12,0.228,0.121c0.147,0.03,0.231,0.047,0.231,0.047L26.938,28.751z"/>
		<path d="M27.815,23.909c0,0-0.085-0.017-0.232-0.046c-0.077-0.006-0.159-0.043-0.257-0.101c-0.107-0.047-0.216-0.117-0.3-0.234
			c-0.117-0.099-0.166-0.248-0.208-0.417c-0.009-0.054-0.033-0.057-0.027-0.157l0.016-0.114c0.013-0.078,0.014-0.154,0.038-0.239
			c0.092-0.181,0.199-0.401,0.382-0.5c0.155-0.155,0.382-0.175,0.595-0.23c0.277,0.046,0.343-0.006,0.612,0.15
			c0.254,0.111,0.354,0.311,0.482,0.491c0.036,0.102,0.049,0.211,0.068,0.314l0.022,0.154c-0.003,0.033,0.008-0.047-0.005,0.079
			l-0.004,0.014l-0.009,0.027l-0.018,0.053c-0.037,0.136-0.093,0.276-0.245,0.424c-0.118,0.148-0.248,0.206-0.367,0.243
			c-0.111,0.049-0.204,0.074-0.291,0.068c-0.162,0.011-0.247,0.022-0.247,0.022L27.815,23.909z M27.821,23.849
			c0,0,0.084-0.023,0.217-0.071c0.071-0.013,0.139-0.069,0.194-0.153c0.069-0.066,0.122-0.155,0.125-0.245
			c0.007-0.049,0.027-0.056,0.031-0.126c-0.001-0.071,0-0.144,0.009-0.218c0.012-0.047-0.049-0.179-0.062-0.267
			c-0.06-0.081-0.103-0.201-0.169-0.24c0.013-0.089-0.293-0.131-0.346-0.171c-0.117,0.032-0.262,0-0.363,0.092
			c-0.138,0.051-0.174,0.151-0.27,0.23c-0.035,0.123-0.123,0.348-0.09,0.399c0.004,0.125,0.01,0.25,0.076,0.35
			c0.037,0.121,0.11,0.197,0.192,0.253c0.068,0.076,0.147,0.12,0.228,0.121c0.148,0.03,0.232,0.047,0.232,0.047L27.821,23.849z"/>
		<path d="M22.291,27.483c0,0-0.085-0.017-0.232-0.047c-0.077-0.006-0.158-0.043-0.257-0.101c-0.106-0.047-0.215-0.117-0.299-0.233
			c-0.117-0.099-0.167-0.248-0.209-0.417c-0.009-0.054-0.033-0.056-0.027-0.157l0.016-0.114c0.013-0.078,0.015-0.154,0.037-0.238
			c0.093-0.181,0.2-0.401,0.382-0.5c0.156-0.154,0.382-0.176,0.595-0.23c0.277,0.045,0.342-0.007,0.612,0.15
			c0.254,0.11,0.354,0.31,0.482,0.491c0.036,0.101,0.049,0.211,0.068,0.314l0.022,0.153c-0.003,0.033,0.008-0.048-0.005,0.079
			l-0.004,0.014l-0.009,0.027l-0.018,0.054c-0.037,0.135-0.094,0.276-0.245,0.423c-0.118,0.148-0.247,0.207-0.366,0.243
			c-0.112,0.048-0.204,0.075-0.291,0.068c-0.162,0.012-0.247,0.023-0.247,0.023L22.291,27.483z M22.297,27.423
			c0,0,0.084-0.023,0.217-0.071c0.07-0.013,0.138-0.069,0.193-0.154c0.069-0.066,0.121-0.155,0.125-0.244
			c0.006-0.049,0.027-0.056,0.031-0.126c-0.001-0.071,0-0.145,0.009-0.218c0.012-0.046-0.049-0.179-0.062-0.267
			c-0.06-0.08-0.103-0.2-0.168-0.239c0.012-0.089-0.294-0.131-0.346-0.171c-0.117,0.031-0.262,0.001-0.363,0.092
			c-0.139,0.05-0.173,0.151-0.27,0.23c-0.035,0.123-0.123,0.348-0.09,0.398c0.004,0.125,0.011,0.25,0.077,0.35
			c0.037,0.121,0.11,0.197,0.191,0.253c0.069,0.076,0.148,0.12,0.229,0.121c0.147,0.03,0.231,0.047,0.231,0.047L22.297,27.423z"/>
		<path d="M23.05,23.272c0,0-0.085-0.017-0.232-0.047c-0.077-0.005-0.158-0.043-0.256-0.101c-0.107-0.047-0.216-0.117-0.3-0.234
			c-0.116-0.099-0.166-0.248-0.208-0.417c-0.009-0.055-0.033-0.056-0.027-0.157l0.016-0.114c0.013-0.078,0.014-0.154,0.037-0.238
			c0.092-0.181,0.2-0.401,0.382-0.5c0.156-0.154,0.382-0.175,0.595-0.229c0.276,0.045,0.342-0.006,0.611,0.15
			c0.255,0.111,0.354,0.311,0.482,0.491c0.036,0.102,0.05,0.211,0.068,0.314l0.022,0.153c-0.003,0.033,0.009-0.047-0.005,0.079
			l-0.004,0.014l-0.009,0.027l-0.018,0.053c-0.037,0.135-0.094,0.276-0.245,0.423c-0.118,0.148-0.248,0.206-0.366,0.243
			c-0.112,0.049-0.204,0.075-0.291,0.069c-0.162,0.011-0.247,0.022-0.247,0.022L23.05,23.272z M23.056,23.212
			c0,0,0.084-0.023,0.217-0.071c0.07-0.013,0.138-0.069,0.193-0.153c0.069-0.066,0.121-0.155,0.125-0.244
			c0.006-0.049,0.027-0.056,0.03-0.126c0-0.071,0.001-0.144,0.01-0.218c0.012-0.047-0.049-0.179-0.061-0.267
			c-0.061-0.08-0.103-0.2-0.169-0.239c0.012-0.089-0.293-0.13-0.346-0.171c-0.117,0.031-0.262,0.001-0.363,0.091
			c-0.138,0.05-0.173,0.151-0.269,0.23c-0.035,0.123-0.123,0.348-0.09,0.398c0.004,0.125,0.01,0.25,0.076,0.35
			c0.037,0.121,0.11,0.197,0.192,0.253c0.068,0.076,0.147,0.12,0.228,0.122c0.147,0.03,0.231,0.047,0.231,0.047L23.056,23.212z"/>
		<path d="M28.589,26.6c0,0-0.085-0.017-0.232-0.047c-0.077-0.005-0.158-0.043-0.257-0.101c-0.107-0.047-0.215-0.118-0.299-0.234
			c-0.117-0.099-0.166-0.248-0.209-0.417c-0.008-0.054-0.033-0.057-0.026-0.157l0.016-0.114c0.014-0.078,0.014-0.154,0.038-0.238
			c0.092-0.182,0.2-0.4,0.382-0.5c0.178-0.152,0.335-0.18,0.644-0.224c0.181,0.035,0.315-0.009,0.564,0.146
			c0.254,0.111,0.354,0.311,0.481,0.491c0.036,0.101,0.05,0.211,0.068,0.314l0.022,0.153c-0.003,0.033,0.008-0.047-0.005,0.079
			l-0.004,0.014l-0.009,0.027l-0.018,0.054c-0.037,0.135-0.094,0.276-0.246,0.423c-0.118,0.148-0.248,0.205-0.367,0.242
			c-0.111,0.049-0.204,0.074-0.291,0.068c-0.162,0.011-0.247,0.022-0.247,0.022L28.589,26.6z M28.595,26.54
			c0,0,0.084-0.023,0.217-0.071c0.071-0.013,0.139-0.068,0.194-0.153c0.069-0.066,0.122-0.155,0.125-0.244
			c0.007-0.049,0.027-0.056,0.031-0.125c0-0.071,0.001-0.145,0.01-0.218c0.012-0.047-0.049-0.179-0.062-0.267
			c-0.06-0.08-0.103-0.201-0.169-0.24c-0.01-0.091-0.243-0.126-0.394-0.176c-0.021,0.041-0.235,0.002-0.315,0.096
			c-0.138,0.05-0.174,0.15-0.269,0.23c-0.036,0.122-0.123,0.348-0.091,0.398c0.004,0.125,0.01,0.25,0.076,0.35
			c0.036,0.121,0.11,0.197,0.191,0.253c0.069,0.076,0.147,0.12,0.229,0.122c0.147,0.03,0.231,0.047,0.231,0.047L28.595,26.54z"/>
		<path d="M20.936,24.772c0,0-0.085-0.017-0.232-0.047c-0.077-0.005-0.158-0.043-0.257-0.101c-0.107-0.046-0.215-0.117-0.3-0.234
			c-0.116-0.099-0.165-0.248-0.208-0.417c-0.008-0.055-0.032-0.057-0.026-0.157l0.016-0.114c0.014-0.078,0.014-0.154,0.038-0.239
			c0.092-0.181,0.2-0.4,0.383-0.5c0.177-0.152,0.334-0.181,0.644-0.224c0.18,0.036,0.315-0.009,0.563,0.146
			c0.255,0.111,0.354,0.311,0.482,0.491c0.035,0.102,0.049,0.212,0.067,0.315l0.022,0.153c-0.003,0.033,0.009-0.047-0.005,0.079
			l-0.005,0.014l-0.009,0.027l-0.017,0.053c-0.037,0.135-0.094,0.276-0.246,0.424c-0.117,0.148-0.248,0.206-0.367,0.242
			c-0.111,0.049-0.204,0.074-0.291,0.068c-0.162,0.011-0.247,0.022-0.247,0.022L20.936,24.772z M20.941,24.712
			c0,0,0.084-0.023,0.217-0.071c0.071-0.013,0.139-0.069,0.194-0.153c0.069-0.066,0.122-0.154,0.126-0.244
			c0.006-0.049,0.026-0.056,0.03-0.125c0-0.071,0.001-0.145,0.01-0.218c0.013-0.048-0.049-0.179-0.061-0.268
			c-0.061-0.08-0.103-0.201-0.169-0.24c-0.01-0.091-0.244-0.126-0.395-0.176c-0.021,0.041-0.234,0.002-0.314,0.096
			c-0.139,0.051-0.175,0.151-0.27,0.231c-0.036,0.122-0.123,0.348-0.091,0.398c0.004,0.125,0.01,0.251,0.076,0.35
			c0.036,0.121,0.109,0.198,0.191,0.253c0.069,0.076,0.147,0.12,0.229,0.122c0.147,0.03,0.231,0.047,0.231,0.047L20.941,24.712z"/>
		<path d="M25.473,22.944c0,0-0.085-0.017-0.232-0.047c-0.077-0.005-0.158-0.043-0.257-0.101c-0.107-0.047-0.215-0.117-0.299-0.234
			c-0.117-0.098-0.166-0.248-0.209-0.417c-0.008-0.054-0.033-0.057-0.026-0.156l0.016-0.114c0.013-0.078,0.014-0.154,0.038-0.238
			c0.092-0.181,0.199-0.401,0.381-0.501c0.177-0.152,0.333-0.181,0.644-0.226c0.181,0.036,0.315-0.009,0.563,0.146
			c0.254,0.111,0.354,0.311,0.481,0.491c0.036,0.101,0.049,0.211,0.068,0.314l0.022,0.153c-0.003,0.033,0.008-0.047-0.005,0.079
			l-0.004,0.014l-0.009,0.027l-0.018,0.054c-0.037,0.135-0.093,0.275-0.244,0.423c-0.118,0.148-0.248,0.207-0.367,0.243
			c-0.111,0.049-0.204,0.074-0.291,0.068c-0.162,0.011-0.247,0.022-0.247,0.022L25.473,22.944z M25.479,22.884
			c0,0,0.084-0.023,0.217-0.071c0.071-0.013,0.139-0.069,0.194-0.153c0.069-0.066,0.121-0.155,0.124-0.244
			c0.007-0.049,0.027-0.055,0.031-0.126c0-0.071,0.001-0.145,0.009-0.218c0.011-0.046-0.049-0.179-0.062-0.267
			c-0.06-0.081-0.103-0.201-0.168-0.241c-0.01-0.091-0.244-0.126-0.395-0.176c-0.02,0.042-0.233,0.003-0.313,0.097
			c-0.138,0.051-0.174,0.151-0.27,0.231c-0.035,0.122-0.122,0.348-0.09,0.398c0.004,0.125,0.01,0.25,0.076,0.35
			c0.037,0.121,0.11,0.198,0.191,0.253c0.069,0.076,0.148,0.12,0.229,0.122c0.147,0.03,0.231,0.047,0.231,0.047L25.479,22.884z"/>
		<path d="M24.224,29.53c0,0-0.085-0.018-0.232-0.048c-0.077-0.005-0.158-0.044-0.257-0.101c-0.107-0.047-0.215-0.118-0.299-0.235
			c-0.116-0.099-0.165-0.248-0.208-0.418c-0.008-0.054-0.033-0.057-0.026-0.156l0.016-0.114c0.014-0.079,0.014-0.154,0.039-0.239
			c0.091-0.182,0.199-0.4,0.382-0.5c0.177-0.152,0.336-0.18,0.644-0.223c0.18,0.035,0.316-0.008,0.564,0.146
			c0.254,0.111,0.354,0.311,0.481,0.491c0.035,0.102,0.049,0.212,0.068,0.315l0.021,0.153c-0.003,0.033,0.009-0.047-0.005,0.079
			l-0.005,0.014l-0.009,0.027l-0.018,0.053c-0.036,0.135-0.094,0.277-0.246,0.424c-0.117,0.148-0.248,0.205-0.367,0.242
			c-0.111,0.049-0.204,0.073-0.291,0.067c-0.162,0.012-0.247,0.022-0.247,0.022H24.224z M24.229,29.47c0,0,0.084-0.023,0.217-0.071
			c0.071-0.013,0.14-0.068,0.194-0.153c0.069-0.066,0.123-0.154,0.126-0.244c0.007-0.049,0.026-0.057,0.031-0.125
			c0-0.071,0.001-0.145,0.01-0.218c0.013-0.048-0.05-0.18-0.061-0.268c-0.061-0.08-0.103-0.201-0.169-0.24
			c-0.01-0.09-0.243-0.126-0.394-0.176c-0.021,0.04-0.235,0.002-0.315,0.095c-0.138,0.05-0.175,0.15-0.27,0.23
			c-0.037,0.121-0.122,0.347-0.092,0.398c0.005,0.125,0.01,0.251,0.076,0.351c0.037,0.121,0.11,0.198,0.191,0.253
			c0.069,0.076,0.147,0.121,0.229,0.122c0.147,0.03,0.231,0.047,0.231,0.047H24.229z"/>
	</g>
</g>
<path fill="none" stroke="#000000" stroke-width="0.774" stroke-miterlimit="10" d="M32.458,24.872
	c-0.038,4.342-3.578,7.831-7.907,7.793c-4.33-0.037-7.811-3.588-7.771-7.929c0.037-4.342,3.578-7.833,7.909-7.793
	C29.018,16.98,32.497,20.53,32.458,24.872L32.458,24.872z"/>
</svg>
