<?xml version="1.0" encoding="utf-8"?>
<!-- Generator: Adobe Illustrator 16.0.0, SVG Export Plug-In . SVG Version: 6.00 Build 0)  -->
<!DOCTYPE svg PUBLIC "-//W3C//DTD SVG 1.1//EN" "http://www.w3.org/Graphics/SVG/1.1/DTD/svg11.dtd">
<svg version="1.1" id="Layer_1" xmlns="http://www.w3.org/2000/svg" xmlns:xlink="http://www.w3.org/1999/xlink" x="0px" y="0px"
	 width="75px" height="75px" viewBox="0 0 75 75" enable-background="new 0 0 75 75" xml:space="preserve">
<g>
	<path fill="#FFFFFF" d="M54.757,2.595c10.283,1.053,17.851,9.784,17.972,20.179c0.117,9.794,0.119,19.59,0.002,29.386
		c-0.139,11.408-9.219,20.441-20.646,20.563c-9.718,0.104-19.439,0.101-29.158,0.002c-11.521-0.117-20.59-9.231-20.685-20.76
		c-0.08-9.645-0.075-19.288-0.001-28.931C2.33,11.403,11.454,2.348,23.123,2.226C27.906,2.177,49.052,2.011,54.757,2.595z
		 M66.415,37.542c0-4.708,0.026-9.416-0.006-14.124c-0.058-8.58-6.229-14.806-14.79-14.851c-9.416-0.048-18.832-0.048-28.248,0
		C14.817,8.611,8.61,14.845,8.574,23.411c-0.039,9.416-0.045,18.833,0.002,28.248c0.042,8.44,6.245,14.682,14.67,14.733
		c9.491,0.06,18.982,0.058,28.475,0c8.422-0.052,14.615-6.297,14.688-14.729C66.448,46.957,66.415,42.25,66.415,37.542z"/>
	<path fill="#FFFFFF" d="M37.454,56.66C26.8,56.632,18.202,47.949,18.311,37.331c0.109-10.586,8.662-19.057,19.216-19.029
		c10.653,0.028,19.252,8.711,19.142,19.33C56.561,48.223,48.009,56.689,37.454,56.66z M37.553,24.574
		c-6.999-0.049-12.926,5.819-12.973,12.846c-0.047,7.005,5.813,12.92,12.849,12.971c6.998,0.049,12.932-5.828,12.971-12.846
		C50.441,30.534,44.587,24.624,37.553,24.574z"/>
	<circle fill="#FFFFFF" cx="56.559" cy="18.246" r="3.079"/>
</g>
</svg>
