<?xml version="1.0" encoding="utf-8"?>
<!-- Generator: Adobe Illustrator 24.0.3, SVG Export Plug-In . SVG Version: 6.00 Build 0)  -->
<svg version="1.1" id="Layer_1" xmlns="http://www.w3.org/2000/svg" xmlns:xlink="http://www.w3.org/1999/xlink" x="0px" y="0px"
	 viewBox="0 0 75 75" enable-background="new 0 0 75 75" xml:space="preserve">
<path fill-rule="evenodd" clip-rule="evenodd" fill="#FFFFFF" d="M37.489,2.167c-19.187,0-34.742,15.555-34.742,34.742
	c0,2.747,0.32,5.417,0.922,7.979c0.616,3.288,1.962,6.36,3.635,9.308c3.388,5.964,8.179,10.575,14.277,13.727
	c3.315,1.717,6.77,3.054,10.51,3.311c1.759,0.274,3.562,0.417,5.397,0.417c1.914,0,3.79-0.157,5.62-0.454
	c0.937-0.065,1.87-0.188,2.791-0.424c8.848-2.281,15.756-7.334,20.75-14.905c2.215-3.358,3.902-6.953,4.628-10.854
	c0.621-2.6,0.952-5.312,0.952-8.103C72.23,17.722,56.677,2.167,37.489,2.167z M31.485,6.485c-3.304,3.204-6.372,6.592-8.503,10.652
	c-0.895,1.707-1.915,2.234-3.739,2.114c-2.428-0.159-4.876-0.04-7.685-0.04C16.713,12.232,23.206,7.978,31.485,6.485z
	 M35.828,34.534c0.013,0.91-0.173,1.244-1.155,1.21c-2.184-0.078-4.373-0.025-6.559-0.025c-2.238,0-4.475-0.01-6.712,0.007
	c-0.614,0.005-1.034,0.02-0.958-0.857c0.348-4.016,1.205-7.899,2.736-11.638c0.312-0.763,0.694-1.072,1.56-1.058
	c3.304,0.058,6.611,0.059,9.915,0.003c0.968-0.016,1.183,0.315,1.17,1.223C35.778,27.11,35.776,30.823,35.828,34.534z M6.009,34.815
	c0.356-4.18,1.436-8.153,3.334-11.9c0.219-0.432,0.453-0.73,1.014-0.727c3.293,0.021,6.586,0.01,10.006,0.01
	c-1.607,4.223-2.708,8.412-2.837,12.803c-0.019,0.655-0.347,0.725-0.869,0.724c-3.3-0.011-6.602-0.028-9.903,0.011
	C5.99,35.745,5.96,35.393,6.009,34.815z M9.515,51.584c-1.979-3.718-3.051-7.699-3.497-11.868C5.941,39,6.106,38.744,6.889,38.755
	c3.202,0.046,6.405,0.02,9.608,0.018c0.514,0,1.009-0.077,1.03,0.721c0.114,4.398,1.194,8.596,2.87,12.836
	c-3.397,0-6.641-0.012-9.884,0.008C9.941,52.342,9.74,52.009,9.515,51.584z M11.946,55.289c3.167,0,6.153,0.011,9.138-0.01
	c0.519-0.005,0.815,0.165,1.068,0.625c2.357,4.305,5.365,8.096,9.032,11.364c0.06,0.052,0.051,0.183,0.073,0.278
	C26.587,68.203,15.676,61.352,11.946,55.289z M35.806,66.96c-3.519-2.036-9.194-8.486-10.313-11.671
	c3.167,0,6.296,0.012,9.424-0.012c0.64-0.006,0.904,0.178,0.9,0.854C35.794,59.673,35.806,63.215,35.806,66.96z M35.825,51.238
	c0.011,0.896-0.298,1.116-1.139,1.105c-3.355-0.039-6.712-0.036-10.068,0c-0.745,0.011-1.046-0.299-1.325-0.942
	c-1.626-3.762-2.484-7.694-2.855-11.761c-0.079-0.867,0.319-0.879,0.948-0.875c2.237,0.02,4.475,0.008,6.712,0.008
	c2.187,0,4.374,0.027,6.56-0.014c0.78-0.015,1.185,0.081,1.17,1.039C35.773,43.611,35.78,47.427,35.825,51.238z M35.795,9.344
	c0.027,2.94-0.008,5.881,0.025,8.821c0.009,0.748-0.14,1.081-0.994,1.068c-3.133-0.049-6.267-0.02-9.567-0.02
	c2.176-4.281,6.92-9.698,10.389-11.914C35.978,7.975,35.789,8.68,35.795,9.344z M62.967,19.211c-3.4,0-6.521-0.007-9.642,0.01
	c-0.419,0.002-0.658-0.167-0.834-0.505c-2.403-4.635-5.655-8.61-9.427-12.233C51.32,8.028,57.851,12.219,62.967,19.211z
	 M38.734,7.218c3.491,2.137,8.16,7.44,10.574,11.994c-1.342,0-2.565,0-3.788,0c-1.929,0-3.855-0.017-5.781,0.01
	c-0.649,0.01-1.029-0.069-1.021-0.879C38.754,14.707,38.734,11.07,38.734,7.218z M38.719,23.233c-0.008-0.79,0.219-1.06,1.026-1.051
	c3.407,0.037,6.815,0.036,10.222-0.001c0.73-0.007,1.065,0.253,1.34,0.916c1.569,3.779,2.443,7.711,2.791,11.782
	c0.076,0.892-0.366,0.851-0.966,0.847c-2.238-0.014-4.477-0.006-6.713-0.006c-2.188,0-4.376-0.031-6.562,0.018
	c-0.809,0.018-1.16-0.127-1.146-1.061C38.766,30.863,38.754,27.048,38.719,23.233z M39.953,38.758
	c2.184,0.051,4.371,0.016,6.557,0.016c2.238,0,4.476,0.028,6.712-0.015c0.758-0.016,0.936,0.209,0.869,0.957
	c-0.349,3.966-1.225,7.793-2.74,11.481c-0.328,0.794-0.702,1.179-1.656,1.159c-3.253-0.074-6.507-0.057-9.76-0.01
	c-0.911,0.015-1.238-0.205-1.224-1.181c0.057-3.76,0.064-7.523-0.004-11.285C38.688,38.849,39.097,38.736,39.953,38.758z
	 M38.947,66.982c-0.398-0.751-0.196-1.459-0.201-2.126c-0.028-2.841,0.009-5.682-0.027-8.522c-0.011-0.764,0.164-1.077,1.004-1.064
	c3.09,0.047,6.181,0.02,9.569,0.02C46.487,59.991,43.179,63.815,38.947,66.982z M43.338,67.819c-0.146-0.619,0.252-0.769,0.495-0.99
	c3.326-3.031,6.109-6.494,8.252-10.446c0.482-0.892,1.051-1.141,2.02-1.118c2.772,0.068,5.547,0.025,8.664,0.025
	C57.642,62.04,51.296,66.155,43.338,67.819z M68.524,39.568c-0.423,4.276-1.532,8.348-3.571,12.151
	c-0.223,0.415-0.467,0.612-0.931,0.612c-3.242-0.007-6.483-0.005-9.858-0.005c1.638-4.245,2.746-8.438,2.852-12.84
	c0.015-0.653,0.36-0.721,0.882-0.719c3.303,0.011,6.607,0.021,9.911-0.007C68.445,38.756,68.581,38.995,68.524,39.568z
	 M67.579,35.738c-3.198-0.048-6.399-0.038-9.599-0.004c-0.721,0.007-0.958-0.212-0.982-0.939c-0.146-4.288-1.217-8.382-2.838-12.596
	c3.428,0,6.673,0.013,9.918-0.013c0.612-0.005,0.888,0.273,1.142,0.771c1.883,3.703,2.918,7.636,3.314,11.758
	C68.61,35.505,68.404,35.752,67.579,35.738z"/>
</svg>
